<?xml version="1.0" standalone="no"?>
<!DOCTYPE svg PUBLIC "-//W3C//DTD SVG 20010904//EN"
 "http://www.w3.org/TR/2001/REC-SVG-20010904/DTD/svg10.dtd">
<svg version="1.0" xmlns="http://www.w3.org/2000/svg"
 width="800.000000pt" height="134.000000pt" viewBox="0 0 800.000000 134.000000"
 preserveAspectRatio="xMidYMid meet">

<g transform="translate(0.000000,134.000000) scale(0.100000,-0.100000)"
fill="#000000" stroke="none">
<path d="M133 1298 c3 -7 118 -295 257 -641 l253 -627 91 0 91 0 144 358 c79
196 147 361 152 366 5 6 9 -145 9 -357 l0 -367 150 0 150 0 0 640 0 640 -192
0 -193 0 -154 -385 c-85 -211 -157 -382 -160 -379 -4 3 -74 175 -158 382
l-151 377 -147 3 c-116 2 -146 0 -142 -10z"/>
<path d="M3430 1088 l0 -222 -27 26 c-136 130 -391 111 -522 -38 -127 -145
-157 -425 -66 -618 106 -224 390 -295 578 -145 l37 30 0 -46 0 -45 135 0 135
0 0 640 0 640 -135 0 -135 0 0 -222z m-85 -373 c19 -9 46 -28 60 -41 l25 -24
-2 -162 -3 -162 -40 -28 c-87 -61 -199 -59 -272 5 -100 88 -103 289 -5 380 60
57 156 70 237 32z"/>
<path d="M3890 1175 l0 -135 180 0 180 0 0 -505 0 -505 155 0 155 0 0 505 0
505 175 0 175 0 0 135 0 135 -510 0 -510 0 0 -135z"/>
<path d="M7090 670 l0 -640 135 0 135 0 0 314 0 314 35 26 c102 78 235 71 277
-14 16 -31 18 -70 18 -337 l0 -303 135 0 135 0 0 354 c0 326 -2 359 -20 419
-39 127 -141 184 -311 175 -71 -4 -101 -11 -156 -37 -37 -18 -78 -42 -90 -53
l-23 -21 0 221 0 222 -135 0 -135 0 0 -640z"/>
<path d="M2025 974 c-115 -24 -188 -60 -254 -125 -96 -92 -143 -209 -143 -354
-1 -291 199 -484 503 -485 79 0 203 26 261 56 46 23 117 77 118 89 0 5 -26 47
-57 92 l-56 83 -35 -27 c-137 -104 -339 -96 -421 18 -17 23 -31 48 -31 56 0
11 59 13 325 13 l325 0 0 86 c0 247 -127 431 -334 486 -64 17 -152 22 -201 12z
m189 -244 c39 -24 86 -94 86 -128 0 -22 -2 -22 -200 -22 -131 0 -200 4 -200
10 0 21 31 85 53 109 59 64 185 79 261 31z"/>
<path d="M5236 964 c-208 -50 -347 -238 -348 -470 0 -237 132 -411 357 -469
75 -19 211 -19 294 0 71 17 188 74 220 109 l21 22 -61 87 -60 87 -51 -35
c-145 -100 -342 -81 -413 39 -14 23 -25 46 -25 49 0 4 149 7 331 7 l332 0 -7
93 c-13 170 -51 272 -137 362 -110 116 -280 161 -453 119z m244 -238 c40 -27
80 -89 80 -126 0 -19 -5 -20 -201 -20 l-200 0 7 23 c23 76 70 128 132 148 49
16 140 3 182 -25z"/>
<path d="M6430 973 c-202 -34 -368 -201 -401 -404 -32 -198 75 -415 251 -504
160 -81 355 -71 494 24 46 32 118 102 114 111 -2 3 -45 45 -97 94 l-93 88 -37
-36 c-94 -92 -239 -88 -319 10 -85 102 -58 254 56 321 87 51 213 30 274 -46
l23 -29 100 94 100 95 -58 55 c-113 106 -260 152 -407 127z"/>
<path d="M41 403 l-1 -373 150 0 c83 0 150 2 150 3 0 3 -259 648 -290 722 -5
11 -9 -143 -9 -352z"/>
</g>
</svg>
